<?xml version="1.0" encoding="UTF-8"?>
<svg xmlns="http://www.w3.org/2000/svg" xmlns:xlink="http://www.w3.org/1999/xlink" width="64px" height="64px" viewBox="0 0 64 64" version="1.1">
<g id="surface1">
<path style=" stroke:none;fill-rule:nonzero;fill:rgb(91.764706%,35.294118%,27.843137%);fill-opacity:1;" d="M 51.679688 19.359375 L 44.78125 12.238281 L 32.078125 24.878906 L 19.441406 12.238281 L 12.316406 19.359375 L 25.082031 32 L 12.316406 44.640625 L 19.441406 51.761719 L 32.082031 39.121094 L 44.78125 51.761719 L 51.679688 44.640625 L 39.039062 32 Z M 51.679688 19.359375 "/>
<path style="fill:none;stroke-width:2;stroke-linecap:round;stroke-linejoin:round;stroke:rgb(0%,0%,0%);stroke-opacity:1;stroke-miterlimit:10;" d="M 58.139648 21.779297 L 50.378906 13.768066 L 36.087891 27.98877 L 21.871582 13.768066 L 13.855957 21.779297 L 28.208496 36 L 13.855957 50.220703 L 21.871582 58.231934 L 36.092285 44.01123 L 50.378906 58.231934 L 58.139648 50.220703 L 43.918945 36 Z M 58.139648 21.779297 " transform="matrix(0.888889,0,0,0.888889,0,0)"/>
</g>
</svg>
