<svg width="300" height="300" fill="none" xmlns="http://www.w3.org/2000/svg">
  <path opacity=".5" d="M85 59.1a7.8 7.8 0 0 0-5.2 4.7c-2-1.5-4.5-2-6.9-1.4-4.2 1.1-7.8 6.1-4.7 12.1 3 6 14.5 10.2 17 9.6 2.5-.7 10.3-10 10-16.8-.3-6.7-6-9.3-10.2-8.2Z" fill="#F71111"/>
  <path opacity=".4" d="M127.2 233.4a7.8 7.8 0 0 0-5.2 4.7 8 8 0 0 0-6.8-1.4c-4.3 1.1-7.9 6.1-4.8 12.1 3 6 14.6 10.2 17 9.5 2.5-.6 10.4-10 10-16.7-.3-6.8-5.9-9.3-10.2-8.2Zm107.4-131.1a7.8 7.8 0 0 0-5.2 4.7c-2-1.5-4.5-2-6.9-1.4-4.3 1.1-7.8 6.1-4.8 12.1 3.1 6 14.6 10.2 17 9.6 2.6-.7 10.4-10 10-16.8-.3-6.7-5.9-9.3-10.1-8.2Z" fill="#F71111"/>
  <path opacity=".3" d="M215.3 23.6a7.8 7.8 0 0 0-6.9 1.4c-1-2.3-2.8-4-5.2-4.6-4.3-1.2-9.9 1.4-10.2 8.1-.3 6.8 7.5 16.1 10 16.8 2.5.6 14-3.5 17-9.5 3.1-6-.5-11-4.7-12.2ZM256.2 231a7.8 7.8 0 0 0-6.8 1.5c-1-2.3-2.9-4-5.2-4.7-4.3-1.1-9.9 1.4-10.2 8.2-.4 6.7 7.5 16 10 16.7 2.4.7 14-3.5 17-9.5s-.5-11-4.8-12.1Z" fill="#F71111"/>
  <path opacity=".2" d="M135.4 144.8a7.8 7.8 0 0 0-6.9 1.4c-1-2.3-2.8-4-5.2-4.7-4.3-1.1-9.9 1.4-10.2 8.2-.3 6.7 7.5 16 10 16.7 2.5.7 14-3.5 17-9.5 3.1-6-.5-11-4.7-12.1Z" fill="#F95858"/>
  <path opacity=".2" d="M36.4 3.5a7.8 7.8 0 0 0-6.9 1.4c-.9-2.3-2.8-4-5.2-4.6C20-1 14.4 1.7 14.1 8.4c-.3 6.8 7.5 16.1 10 16.8 2.5.6 14-3.5 17-9.5 3.1-6-.4-11-4.7-12.2Z" fill="#F71111"/>
  <path opacity=".3" d="M31.5 184.3a7.8 7.8 0 0 0-6.8 1.4c-1-2.3-2.9-4-5.2-4.7-4.3-1.1-10 1.4-10.3 8.2-.3 6.7 7.6 16 10 16.7 2.5.7 14-3.5 17-9.5 3.2-6-.4-11-4.7-12.1Z" fill="#F71111"/>
</svg>